# xmcd
#
# Track frame offsets:
#	150
#	18842
#	39070
#	56947
#	73462
#	92895
#	107992
#	118687
#	139630
#	157935
#	180602
#	199660
#	217832
#	236775
#	259875
#	279670
#	297830
#	316350
#
# Disc length: 4467 seconds
#
# Revision: 1
# Processed by: cddbd v1.5PL3 Copyright (c) Steve Scherf et al.
# Submitted via: CDex 1.50Beta5
#
DISCID=0d117112
DTITLE=菊池桃子 - Premium Collection "Legend" [CD3]
DYEAR=2003
DGENRE=Pop
TTITLE0=Broken Sunset
TTITLE1=Eden Of Galaxy
TTITLE2=夏色片想い
TTITLE3=夜明けのSpeed Way
TTITLE4=Say Yes!
TTITLE5=18歳の秋
TTITLE6=Overture
TTITLE7=Adventure
TTITLE8=波になりたい
TTITLE9=Night Cruising
TTITLE10=雨のRealize
TTITLE11=赤い稲妻
TTITLE12=Good Friend
TTITLE13=Mystical Composer
TTITLE14=Tomorrow
TTITLE15=Deja Vu
TTITLE16=Broken Sunset <Instrumental>
TTITLE17=夏色片想い <Instrumental>
EXTD=
EXTT0=
EXTT1=
EXTT2=
EXTT3=
EXTT4=
EXTT5=
EXTT6=
EXTT7=
EXTT8=
EXTT9=
EXTT10=
EXTT11=
EXTT12=
EXTT13=
EXTT14=
EXTT15=
EXTT16=
EXTT17=
PLAYORDER=
